<svg width="357" height="128" viewBox="0 0 357 128" fill="none" xmlns="http://www.w3.org/2000/svg">
<path d="M54.1885 0.144287C19.8108 0.144287 0 15.1882 0 41.19C0 65.1488 13.2072 76.1067 46.0311 78.7069C62.5401 80.007 67.3957 82.6072 67.3957 87.9933C67.3957 94.6795 61.1806 97.8368 47.7791 97.8368C31.0758 97.8368 14.9552 92.4507 2.91336 82.9786H1.35957V117.524C11.6534 124.024 27.3856 127.182 49.1387 127.182C83.3221 127.182 102.356 112.881 102.356 87.2504C102.356 62.5486 89.1488 51.5907 56.1307 48.6191C39.8159 47.1333 35.1545 44.7188 35.1545 39.3327C35.1545 32.8323 41.5639 29.4892 53.6058 29.4892C69.5322 29.4892 83.9048 34.5038 92.4506 42.8616H94.0044V8.31628C86.2355 3.48738 69.9206 0.144287 54.1885 0.144287Z" fill="white"/>
<path d="M182.938 32.0894H218.481V2.00156H111.658V32.0894H147.589V125.324H182.938V32.0894Z" fill="white"/>
<path d="M234.983 2.00156V125.324H288.006C332.289 125.324 356.761 103.223 356.761 63.663C356.761 24.1031 332.289 2.00156 288.006 2.00156H234.983ZM270.332 95.2366V32.0894H285.87C309.565 32.0894 321.024 42.4901 321.024 63.663C321.024 84.8359 309.565 95.2366 285.87 95.2366H270.332Z" fill="white"/>
</svg>
